<?xml version="1.0" encoding="UTF-8"?>
<svg xmlns="http://www.w3.org/2000/svg" xmlns:xlink="http://www.w3.org/1999/xlink" width="20pt" height="26pt" viewBox="0 0 20 26" version="1.1">
<g id="surface1">
<path style=" stroke:none;fill-rule:nonzero;fill:rgb(99.607843%,99.607843%,99.607843%);fill-opacity:1;" d="M 0.046875 13.070312 C 0.046875 8.789062 0.0507812 4.511719 0.0429688 0.234375 C 0.0429688 0.0742188 0.0742188 0.0429688 0.238281 0.0429688 C 6.792969 0.046875 13.347656 0.046875 19.898438 0.0429688 C 20.0625 0.0429688 20.097656 0.0703125 20.097656 0.230469 C 20.09375 8.789062 20.09375 17.34375 20.097656 25.902344 C 20.097656 26.058594 20.070312 26.09375 19.902344 26.09375 C 13.347656 26.089844 6.796875 26.089844 0.242188 26.09375 C 0.078125 26.09375 0.0429688 26.066406 0.0429688 25.90625 C 0.0507812 21.625 0.046875 17.347656 0.046875 13.070312 Z M 10.261719 24.234375 C 10.617188 24.253906 11.054688 24.203125 11.480469 24.128906 C 12.355469 23.972656 13.199219 23.714844 13.984375 23.289062 C 14.871094 22.8125 15.632812 22.203125 16.269531 21.449219 C 16.863281 20.742188 17.304688 19.957031 17.605469 19.097656 C 17.839844 18.433594 17.96875 17.75 18.039062 17.046875 C 18.109375 16.34375 18.050781 15.652344 17.90625 14.972656 C 17.683594 13.914062 17.179688 12.957031 16.582031 12.042969 C 15.957031 11.089844 15.203125 10.21875 14.601562 9.246094 C 14.105469 8.441406 13.59375 7.640625 13.125 6.820312 C 12.605469 5.914062 12.324219 4.910156 11.878906 3.972656 C 11.652344 3.5 11.484375 3.003906 11.148438 2.574219 C 10.765625 2.082031 9.867188 1.941406 9.417969 2.429688 C 9.097656 2.777344 8.839844 3.160156 8.636719 3.570312 C 8.335938 4.171875 8.140625 4.820312 7.886719 5.441406 C 7.574219 6.207031 7.222656 6.957031 6.789062 7.664062 C 6.097656 8.800781 5.300781 9.867188 4.546875 10.960938 C 3.804688 12.035156 3.175781 13.167969 2.757812 14.398438 C 2.414062 15.425781 2.199219 16.46875 2.359375 17.550781 C 2.5 18.476562 2.773438 19.367188 3.242188 20.195312 C 3.804688 21.195312 4.574219 22.023438 5.507812 22.699219 C 6.890625 23.699219 8.449219 24.214844 10.261719 24.234375 Z M 10.261719 24.234375 "/>
<path style=" stroke:none;fill-rule:nonzero;fill:rgb(30.980392%,55.686275%,90.196078%);fill-opacity:1;" d="M 10.261719 24.234375 C 8.449219 24.214844 6.890625 23.699219 5.507812 22.699219 C 4.574219 22.023438 3.804688 21.195312 3.242188 20.195312 C 2.773438 19.367188 2.5 18.476562 2.359375 17.550781 C 2.199219 16.46875 2.414062 15.425781 2.757812 14.398438 C 3.175781 13.167969 3.804688 12.035156 4.546875 10.960938 C 5.300781 9.867188 6.097656 8.800781 6.789062 7.664062 C 7.222656 6.957031 7.574219 6.207031 7.886719 5.441406 C 8.140625 4.820312 8.335938 4.171875 8.636719 3.570312 C 8.839844 3.160156 9.097656 2.777344 9.417969 2.429688 C 9.867188 1.941406 10.765625 2.082031 11.148438 2.574219 C 11.484375 3.003906 11.652344 3.5 11.878906 3.972656 C 12.324219 4.910156 12.605469 5.914062 13.125 6.820312 C 13.59375 7.640625 14.105469 8.441406 14.601562 9.246094 C 15.203125 10.21875 15.957031 11.089844 16.582031 12.042969 C 17.179688 12.957031 17.683594 13.914062 17.90625 14.972656 C 18.050781 15.652344 18.109375 16.34375 18.039062 17.046875 C 17.96875 17.75 17.839844 18.433594 17.605469 19.097656 C 17.304688 19.957031 16.863281 20.742188 16.269531 21.449219 C 15.632812 22.203125 14.871094 22.8125 13.984375 23.289062 C 13.199219 23.714844 12.355469 23.972656 11.480469 24.128906 C 11.054688 24.203125 10.617188 24.253906 10.261719 24.234375 Z M 8.203125 20.300781 C 9.4375 20.335938 10.363281 19.171875 9.992188 17.925781 C 9.886719 17.566406 9.632812 17.285156 9.4375 16.96875 C 9.085938 16.402344 8.632812 15.894531 8.390625 15.265625 C 8.351562 15.160156 8.320312 15.042969 8.167969 15.027344 C 7.996094 15.007812 7.941406 15.132812 7.886719 15.238281 C 7.753906 15.507812 7.636719 15.78125 7.511719 16.054688 C 7.257812 16.585938 6.859375 17.035156 6.578125 17.554688 C 6.300781 18.074219 6.234375 18.609375 6.425781 19.15625 C 6.667969 19.832031 7.464844 20.375 8.203125 20.300781 Z M 8.203125 20.300781 "/>
<path style=" stroke:none;fill-rule:nonzero;fill:rgb(99.607843%,99.607843%,99.607843%);fill-opacity:1;" d="M 8.203125 20.300781 C 7.464844 20.375 6.667969 19.832031 6.425781 19.15625 C 6.234375 18.609375 6.300781 18.074219 6.578125 17.554688 C 6.859375 17.035156 7.257812 16.585938 7.511719 16.054688 C 7.636719 15.78125 7.753906 15.507812 7.886719 15.238281 C 7.941406 15.132812 7.996094 15.007812 8.167969 15.027344 C 8.320312 15.042969 8.351562 15.160156 8.390625 15.265625 C 8.632812 15.894531 9.085938 16.402344 9.4375 16.96875 C 9.632812 17.285156 9.886719 17.566406 9.992188 17.925781 C 10.363281 19.171875 9.4375 20.335938 8.203125 20.300781 Z M 8.203125 20.300781 "/>
</g>
</svg>
