<?xml version="1.0" encoding="UTF-8"?>
<svg xmlns="http://www.w3.org/2000/svg" xmlns:xlink="http://www.w3.org/1999/xlink" width="20pt" height="16pt" viewBox="0 0 20 16" version="1.1">
<g id="surface1">
<path style=" stroke:none;fill-rule:nonzero;fill:rgb(99.607843%,99.607843%,99.607843%);fill-opacity:1;" d="M 10.039062 0.03125 C 13.335938 0.03125 16.632812 0.03125 19.925781 0.0273438 C 20.042969 0.0273438 20.0625 0.0546875 20.0625 0.164062 C 20.058594 5.414062 20.058594 10.664062 20.066406 15.910156 C 20.066406 16.046875 20.027344 16.0625 19.902344 16.0625 C 13.328125 16.058594 6.75 16.058594 0.175781 16.0625 C 0.0625 16.0625 0.0273438 16.042969 0.0273438 15.921875 C 0.03125 10.671875 0.03125 5.421875 0.0273438 0.171875 C 0.0273438 0.0429688 0.0625 0.0273438 0.183594 0.0273438 C 3.46875 0.03125 6.753906 0.03125 10.039062 0.03125 Z M 10.53125 13.691406 C 12.136719 13.691406 13.746094 13.6875 15.355469 13.695312 C 15.519531 13.695312 15.675781 13.648438 15.824219 13.609375 C 15.976562 13.574219 16.136719 13.507812 16.285156 13.457031 C 16.597656 13.355469 16.898438 13.230469 17.132812 13.027344 C 17.441406 12.765625 17.765625 12.503906 17.984375 12.148438 C 18.105469 11.953125 18.179688 11.742188 18.265625 11.53125 C 18.324219 11.382812 18.355469 11.238281 18.398438 11.089844 C 18.476562 10.804688 18.511719 10.523438 18.511719 10.230469 C 18.511719 10.09375 18.46875 9.960938 18.429688 9.84375 C 18.363281 9.65625 18.28125 9.464844 18.207031 9.273438 C 18.101562 8.992188 17.945312 8.734375 17.765625 8.503906 C 17.363281 7.988281 16.800781 7.660156 16.203125 7.40625 C 16.007812 7.324219 15.9375 7.261719 16.066406 7.046875 C 16.207031 6.8125 16.265625 6.550781 16.296875 6.28125 C 16.328125 6.003906 16.234375 5.746094 16.160156 5.488281 C 16.113281 5.328125 16.035156 5.164062 15.921875 5.046875 C 15.699219 4.8125 15.484375 4.570312 15.203125 4.402344 C 14.960938 4.257812 14.707031 4.136719 14.429688 4.128906 C 13.875 4.113281 13.332031 4.160156 12.871094 4.503906 C 12.824219 4.539062 12.765625 4.53125 12.710938 4.496094 C 12.644531 4.453125 12.597656 4.398438 12.558594 4.332031 C 12.117188 3.59375 11.578125 2.945312 10.792969 2.527344 C 10.605469 2.429688 10.425781 2.3125 10.230469 2.253906 C 10.003906 2.1875 9.796875 2.078125 9.554688 2.042969 C 9.367188 2.019531 9.179688 1.953125 8.984375 1.941406 C 8.546875 1.921875 8.109375 1.941406 7.691406 2.070312 C 7.59375 2.097656 7.488281 2.09375 7.402344 2.132812 C 7.230469 2.207031 7.054688 2.28125 6.882812 2.359375 C 6.382812 2.589844 5.917969 2.863281 5.535156 3.261719 C 5.308594 3.496094 5.101562 3.734375 4.953125 4.019531 C 4.839844 4.234375 4.710938 4.441406 4.605469 4.65625 C 4.449219 4.972656 4.320312 5.296875 4.332031 5.660156 C 4.339844 5.863281 4.328125 6.070312 4.335938 6.273438 C 4.339844 6.367188 4.300781 6.425781 4.242188 6.496094 C 3.976562 6.816406 3.589844 7.003906 3.289062 7.289062 C 2.921875 7.640625 2.613281 8.019531 2.417969 8.496094 C 2.292969 8.796875 2.191406 9.101562 2.132812 9.417969 C 2.082031 9.679688 2.042969 9.949219 2.085938 10.222656 C 2.121094 10.449219 2.191406 10.664062 2.246094 10.886719 C 2.363281 11.335938 2.539062 11.777344 2.835938 12.125 C 3.152344 12.496094 3.503906 12.863281 3.957031 13.105469 C 4.078125 13.171875 4.195312 13.269531 4.320312 13.308594 C 4.53125 13.375 4.734375 13.460938 4.945312 13.527344 C 5.207031 13.609375 5.46875 13.683594 5.738281 13.6875 C 7.335938 13.695312 8.933594 13.691406 10.53125 13.691406 Z M 10.53125 13.691406 "/>
<path style=" stroke:none;fill-rule:nonzero;fill:rgb(22.745098%,75.294118%,67.058824%);fill-opacity:1;" d="M 10.53125 13.691406 C 8.933594 13.691406 7.335938 13.695312 5.738281 13.6875 C 5.46875 13.683594 5.207031 13.609375 4.945312 13.527344 C 4.734375 13.460938 4.53125 13.375 4.320312 13.308594 C 4.195312 13.269531 4.078125 13.171875 3.957031 13.105469 C 3.503906 12.863281 3.152344 12.496094 2.835938 12.125 C 2.539062 11.777344 2.363281 11.335938 2.246094 10.886719 C 2.191406 10.664062 2.121094 10.449219 2.085938 10.222656 C 2.042969 9.949219 2.082031 9.679688 2.132812 9.417969 C 2.191406 9.101562 2.292969 8.796875 2.417969 8.496094 C 2.613281 8.019531 2.921875 7.640625 3.289062 7.289062 C 3.589844 7.003906 3.976562 6.816406 4.242188 6.496094 C 4.300781 6.425781 4.339844 6.367188 4.335938 6.273438 C 4.328125 6.070312 4.339844 5.863281 4.332031 5.660156 C 4.320312 5.296875 4.449219 4.972656 4.605469 4.65625 C 4.710938 4.441406 4.839844 4.234375 4.953125 4.019531 C 5.101562 3.734375 5.308594 3.496094 5.535156 3.261719 C 5.917969 2.863281 6.382812 2.589844 6.882812 2.359375 C 7.054688 2.28125 7.230469 2.207031 7.402344 2.132812 C 7.488281 2.09375 7.59375 2.097656 7.691406 2.070312 C 8.109375 1.941406 8.546875 1.921875 8.984375 1.941406 C 9.179688 1.953125 9.367188 2.019531 9.554688 2.042969 C 9.796875 2.078125 10.003906 2.1875 10.230469 2.253906 C 10.425781 2.3125 10.605469 2.429688 10.792969 2.527344 C 11.578125 2.945312 12.117188 3.59375 12.558594 4.332031 C 12.597656 4.398438 12.644531 4.453125 12.710938 4.496094 C 12.765625 4.53125 12.824219 4.539062 12.871094 4.503906 C 13.332031 4.160156 13.875 4.113281 14.429688 4.128906 C 14.707031 4.136719 14.960938 4.257812 15.203125 4.402344 C 15.484375 4.570312 15.699219 4.8125 15.921875 5.046875 C 16.035156 5.164062 16.113281 5.328125 16.160156 5.488281 C 16.234375 5.746094 16.328125 6.003906 16.296875 6.28125 C 16.265625 6.550781 16.207031 6.8125 16.066406 7.046875 C 15.9375 7.261719 16.007812 7.324219 16.203125 7.40625 C 16.800781 7.660156 17.363281 7.988281 17.765625 8.503906 C 17.945312 8.734375 18.101562 8.992188 18.207031 9.273438 C 18.28125 9.464844 18.363281 9.65625 18.429688 9.84375 C 18.46875 9.960938 18.511719 10.09375 18.511719 10.230469 C 18.511719 10.523438 18.476562 10.804688 18.398438 11.089844 C 18.355469 11.238281 18.324219 11.382812 18.265625 11.53125 C 18.179688 11.742188 18.105469 11.953125 17.984375 12.148438 C 17.765625 12.503906 17.441406 12.765625 17.132812 13.027344 C 16.898438 13.230469 16.597656 13.355469 16.285156 13.457031 C 16.136719 13.507812 15.976562 13.574219 15.824219 13.609375 C 15.675781 13.648438 15.519531 13.695312 15.355469 13.695312 C 13.746094 13.6875 12.136719 13.691406 10.53125 13.691406 Z M 13.539062 8.894531 C 13.570312 8.441406 13.496094 8.03125 13.285156 7.640625 C 12.917969 6.960938 12.253906 6.585938 11.429688 6.707031 C 10.949219 6.777344 10.585938 7.015625 10.3125 7.394531 C 9.855469 8.035156 9.800781 8.746094 9.957031 9.484375 C 10.054688 9.9375 10.285156 10.320312 10.667969 10.605469 C 10.847656 10.738281 11.035156 10.871094 11.253906 10.910156 C 12.035156 11.050781 12.707031 10.882812 13.195312 10.1875 C 13.46875 9.792969 13.59375 9.355469 13.539062 8.894531 Z M 7.695312 10.953125 C 7.882812 10.96875 8.078125 10.941406 8.269531 10.890625 C 8.800781 10.738281 9.175781 10.40625 9.378906 9.90625 C 9.425781 9.785156 9.429688 9.644531 9.339844 9.542969 C 9.25 9.445312 8.914062 9.453125 8.789062 9.53125 C 8.601562 9.648438 8.515625 9.84375 8.394531 10.011719 C 8.042969 10.503906 7.445312 10.445312 7.082031 10.082031 C 6.882812 9.878906 6.84375 9.621094 6.777344 9.367188 C 6.628906 8.785156 6.71875 8.230469 6.996094 7.707031 C 7.238281 7.242188 7.746094 7.140625 8.191406 7.425781 C 8.347656 7.523438 8.433594 7.671875 8.539062 7.808594 C 8.660156 7.960938 8.792969 8.089844 8.988281 8.140625 C 9.175781 8.191406 9.375 8.097656 9.390625 7.945312 C 9.398438 7.863281 9.378906 7.769531 9.347656 7.691406 C 9.082031 7.015625 8.335938 6.605469 7.59375 6.683594 C 7.34375 6.707031 7.085938 6.753906 6.863281 6.878906 C 6.441406 7.121094 6.199219 7.507812 6.054688 7.941406 C 5.871094 8.488281 5.878906 9.058594 6.015625 9.617188 C 6.195312 10.363281 6.898438 11.015625 7.695312 10.953125 Z M 14.710938 8.847656 C 14.554688 8.824219 14.238281 9.066406 14.144531 9.289062 C 14.117188 9.359375 14.132812 9.414062 14.179688 9.46875 C 14.234375 9.523438 14.273438 9.46875 14.316406 9.453125 C 14.484375 9.394531 14.613281 9.269531 14.773438 9.199219 C 14.949219 9.121094 15.117188 9.226562 15.125 9.410156 C 15.128906 9.511719 15.085938 9.59375 15.03125 9.675781 C 14.804688 10.007812 14.488281 10.265625 14.230469 10.570312 C 14.171875 10.644531 14.078125 10.710938 14.121094 10.804688 C 14.160156 10.890625 14.273438 10.890625 14.371094 10.890625 C 14.40625 10.890625 14.441406 10.890625 14.480469 10.890625 C 14.707031 10.890625 14.933594 10.878906 15.160156 10.898438 C 15.28125 10.910156 15.378906 10.890625 15.484375 10.839844 C 15.535156 10.816406 15.570312 10.792969 15.570312 10.730469 C 15.566406 10.660156 15.515625 10.640625 15.46875 10.628906 C 15.347656 10.597656 15.226562 10.566406 15.105469 10.554688 C 14.894531 10.535156 14.835938 10.421875 14.953125 10.246094 C 15.039062 10.121094 15.125 9.992188 15.25 9.894531 C 15.382812 9.789062 15.453125 9.640625 15.546875 9.507812 C 15.589844 9.441406 15.59375 9.355469 15.546875 9.289062 C 15.371094 9.035156 15.128906 8.875 14.710938 8.847656 Z M 14.710938 8.847656 "/>
<path style=" stroke:none;fill-rule:nonzero;fill:rgb(99.215686%,99.607843%,99.607843%);fill-opacity:1;" d="M 13.539062 8.894531 C 13.59375 9.355469 13.46875 9.792969 13.195312 10.1875 C 12.707031 10.882812 12.035156 11.050781 11.253906 10.910156 C 11.035156 10.871094 10.847656 10.738281 10.667969 10.605469 C 10.285156 10.320312 10.054688 9.9375 9.957031 9.484375 C 9.800781 8.746094 9.855469 8.035156 10.3125 7.394531 C 10.585938 7.015625 10.949219 6.777344 11.429688 6.707031 C 12.253906 6.585938 12.917969 6.960938 13.285156 7.640625 C 13.496094 8.03125 13.570312 8.441406 13.539062 8.894531 Z M 10.71875 8.808594 C 10.738281 9.195312 10.78125 9.566406 11.003906 9.886719 C 11.179688 10.144531 11.410156 10.34375 11.75 10.328125 C 12.097656 10.3125 12.316406 10.101562 12.457031 9.8125 C 12.691406 9.328125 12.765625 8.828125 12.636719 8.300781 C 12.574219 8.042969 12.527344 7.773438 12.308594 7.589844 C 12.113281 7.421875 11.894531 7.257812 11.617188 7.320312 C 11.351562 7.382812 11.128906 7.523438 10.972656 7.757812 C 10.761719 8.085938 10.746094 8.453125 10.71875 8.808594 Z M 10.71875 8.808594 "/>
<path style=" stroke:none;fill-rule:nonzero;fill:rgb(99.607843%,99.607843%,99.607843%);fill-opacity:1;" d="M 7.695312 10.953125 C 6.898438 11.015625 6.195312 10.363281 6.015625 9.617188 C 5.878906 9.058594 5.871094 8.488281 6.054688 7.941406 C 6.199219 7.507812 6.441406 7.121094 6.863281 6.878906 C 7.085938 6.753906 7.34375 6.707031 7.59375 6.683594 C 8.335938 6.605469 9.082031 7.015625 9.347656 7.691406 C 9.378906 7.769531 9.398438 7.863281 9.390625 7.945312 C 9.375 8.097656 9.175781 8.191406 8.988281 8.140625 C 8.792969 8.089844 8.660156 7.960938 8.539062 7.808594 C 8.433594 7.671875 8.347656 7.523438 8.191406 7.425781 C 7.746094 7.140625 7.238281 7.242188 6.996094 7.707031 C 6.71875 8.230469 6.628906 8.785156 6.777344 9.367188 C 6.84375 9.621094 6.882812 9.878906 7.082031 10.082031 C 7.445312 10.445312 8.042969 10.503906 8.394531 10.011719 C 8.515625 9.84375 8.601562 9.648438 8.789062 9.53125 C 8.914062 9.453125 9.25 9.445312 9.339844 9.542969 C 9.429688 9.644531 9.425781 9.785156 9.378906 9.90625 C 9.175781 10.40625 8.800781 10.738281 8.269531 10.890625 C 8.078125 10.941406 7.882812 10.96875 7.695312 10.953125 Z M 7.695312 10.953125 "/>
<path style=" stroke:none;fill-rule:nonzero;fill:rgb(99.607843%,99.607843%,99.607843%);fill-opacity:1;" d="M 14.710938 8.847656 C 15.128906 8.875 15.371094 9.035156 15.546875 9.289062 C 15.59375 9.355469 15.589844 9.441406 15.546875 9.507812 C 15.453125 9.640625 15.382812 9.789062 15.25 9.894531 C 15.125 9.992188 15.039062 10.121094 14.953125 10.246094 C 14.835938 10.421875 14.894531 10.535156 15.105469 10.554688 C 15.226562 10.566406 15.347656 10.597656 15.46875 10.628906 C 15.515625 10.640625 15.566406 10.660156 15.570312 10.730469 C 15.570312 10.792969 15.535156 10.816406 15.484375 10.839844 C 15.378906 10.890625 15.28125 10.910156 15.160156 10.898438 C 14.933594 10.878906 14.707031 10.890625 14.480469 10.890625 C 14.441406 10.890625 14.40625 10.890625 14.371094 10.890625 C 14.273438 10.890625 14.160156 10.890625 14.121094 10.804688 C 14.078125 10.710938 14.171875 10.644531 14.230469 10.570312 C 14.488281 10.265625 14.804688 10.007812 15.03125 9.675781 C 15.085938 9.59375 15.128906 9.511719 15.125 9.410156 C 15.117188 9.226562 14.949219 9.121094 14.773438 9.199219 C 14.613281 9.269531 14.484375 9.394531 14.316406 9.453125 C 14.273438 9.46875 14.234375 9.523438 14.179688 9.46875 C 14.132812 9.414062 14.117188 9.359375 14.144531 9.289062 C 14.238281 9.066406 14.554688 8.824219 14.710938 8.847656 Z M 14.710938 8.847656 "/>
<path style=" stroke:none;fill-rule:nonzero;fill:rgb(22.745098%,75.294118%,67.058824%);fill-opacity:1;" d="M 10.71875 8.808594 C 10.746094 8.453125 10.761719 8.085938 10.972656 7.757812 C 11.128906 7.523438 11.351562 7.382812 11.617188 7.320312 C 11.894531 7.257812 12.113281 7.421875 12.308594 7.589844 C 12.527344 7.773438 12.574219 8.042969 12.636719 8.300781 C 12.765625 8.828125 12.691406 9.328125 12.457031 9.8125 C 12.316406 10.101562 12.097656 10.3125 11.75 10.328125 C 11.410156 10.34375 11.179688 10.144531 11.003906 9.886719 C 10.78125 9.566406 10.738281 9.195312 10.71875 8.808594 Z M 10.71875 8.808594 "/>
</g>
</svg>
