<?xml version="1.0" encoding="UTF-8"?>
<svg xmlns="http://www.w3.org/2000/svg" xmlns:xlink="http://www.w3.org/1999/xlink" width="20pt" height="22pt" viewBox="0 0 20 22" version="1.1">
<g id="surface1">
<path style=" stroke:none;fill-rule:nonzero;fill:rgb(99.607843%,99.607843%,99.607843%);fill-opacity:1;" d="M 0.0898438 11.097656 C 0.0898438 7.546875 0.09375 3.996094 0.0820312 0.445312 C 0.0820312 0.183594 0.0898438 0.0742188 0.429688 0.078125 C 6.875 0.0898438 13.324219 0.0898438 19.769531 0.078125 C 20.0625 0.078125 20.105469 0.160156 20.105469 0.414062 C 20.097656 7.558594 20.097656 14.703125 20.105469 21.84375 C 20.105469 22.128906 20.023438 22.167969 19.757812 22.167969 C 13.3125 22.160156 6.863281 22.160156 0.417969 22.167969 C 0.125 22.167969 0.0820312 22.085938 0.0820312 21.832031 C 0.09375 18.253906 0.0898438 14.675781 0.0898438 11.097656 Z M 12.425781 11.804688 C 12.640625 12.0625 12.609375 12.359375 12.683594 12.625 C 12.871094 13.3125 13.449219 13.636719 14.148438 13.433594 C 14.515625 13.328125 14.628906 13.089844 14.507812 12.742188 C 14.335938 12.25 14.179688 11.75 14.023438 11.25 C 13.601562 9.914062 13.195312 8.574219 12.761719 7.238281 C 12.605469 6.75 12.152344 6.46875 11.621094 6.46875 C 10.546875 6.46875 9.472656 6.507812 8.40625 6.453125 C 7.566406 6.410156 7.28125 6.710938 7.003906 7.445312 C 6.820312 7.921875 6.703125 8.421875 6.550781 8.90625 C 6.144531 10.191406 5.726562 11.472656 5.324219 12.753906 C 5.222656 13.070312 5.476562 13.410156 5.820312 13.453125 C 6.515625 13.535156 6.757812 13.390625 7.09375 12.78125 C 7.238281 12.523438 7.234375 12.238281 7.320312 11.96875 C 7.347656 11.882812 7.363281 11.769531 7.457031 11.773438 C 7.582031 11.777344 7.585938 11.898438 7.59375 12.003906 C 7.609375 12.277344 7.511719 12.542969 7.515625 12.804688 C 7.550781 15.171875 7.390625 17.539062 7.59375 19.902344 C 7.636719 20.394531 8.042969 20.757812 8.558594 20.78125 C 9.234375 20.8125 9.734375 20.304688 9.734375 19.566406 C 9.738281 17.957031 9.738281 16.347656 9.738281 14.742188 C 9.738281 14.625 9.730469 14.507812 9.75 14.398438 C 9.773438 14.289062 9.859375 14.226562 9.980469 14.238281 C 10.105469 14.253906 10.089844 14.355469 10.09375 14.4375 C 10.097656 14.535156 10.09375 14.636719 10.09375 14.738281 C 10.09375 16.363281 10.085938 17.984375 10.097656 19.609375 C 10.105469 20.558594 11.007812 21.078125 11.804688 20.601562 C 12.195312 20.371094 12.324219 19.996094 12.324219 19.578125 C 12.332031 18.242188 12.34375 16.90625 12.320312 15.570312 C 12.304688 14.496094 12.421875 13.421875 12.242188 12.351562 C 12.210938 12.167969 12.234375 11.980469 12.425781 11.804688 Z M 12.148438 3.65625 C 12.148438 2.445312 11.214844 1.464844 10.0625 1.464844 C 8.710938 1.464844 7.683594 2.347656 7.683594 3.503906 C 7.679688 4.992188 8.5625 5.910156 9.925781 5.960938 C 11.058594 6.003906 12.242188 4.914062 12.148438 3.65625 Z M 12.148438 3.65625 "/>
<path style=" stroke:none;fill-rule:nonzero;fill:rgb(99.607843%,70.980392%,30.196078%);fill-opacity:1;" d="M 12.425781 11.804688 C 12.234375 11.980469 12.210938 12.167969 12.242188 12.351562 C 12.421875 13.421875 12.304688 14.496094 12.320312 15.570312 C 12.34375 16.90625 12.332031 18.242188 12.324219 19.578125 C 12.324219 19.996094 12.195312 20.371094 11.804688 20.601562 C 11.007812 21.078125 10.105469 20.558594 10.097656 19.609375 C 10.085938 17.984375 10.09375 16.363281 10.09375 14.738281 C 10.09375 14.636719 10.097656 14.535156 10.09375 14.4375 C 10.089844 14.355469 10.105469 14.253906 9.980469 14.238281 C 9.859375 14.226562 9.773438 14.289062 9.75 14.398438 C 9.730469 14.507812 9.738281 14.625 9.738281 14.742188 C 9.738281 16.347656 9.738281 17.957031 9.734375 19.566406 C 9.734375 20.304688 9.234375 20.8125 8.558594 20.78125 C 8.042969 20.757812 7.636719 20.394531 7.59375 19.902344 C 7.390625 17.539062 7.550781 15.171875 7.515625 12.804688 C 7.511719 12.542969 7.609375 12.277344 7.59375 12.003906 C 7.585938 11.898438 7.582031 11.777344 7.457031 11.773438 C 7.363281 11.769531 7.347656 11.882812 7.320312 11.96875 C 7.234375 12.238281 7.238281 12.523438 7.09375 12.78125 C 6.757812 13.390625 6.515625 13.535156 5.820312 13.453125 C 5.476562 13.410156 5.222656 13.070312 5.324219 12.753906 C 5.726562 11.472656 6.144531 10.191406 6.550781 8.90625 C 6.703125 8.421875 6.820312 7.921875 7.003906 7.445312 C 7.28125 6.710938 7.566406 6.410156 8.40625 6.453125 C 9.472656 6.507812 10.546875 6.46875 11.621094 6.46875 C 12.152344 6.46875 12.605469 6.75 12.761719 7.238281 C 13.195312 8.574219 13.601562 9.914062 14.023438 11.25 C 14.179688 11.75 14.335938 12.25 14.507812 12.742188 C 14.628906 13.089844 14.515625 13.328125 14.148438 13.433594 C 13.449219 13.636719 12.871094 13.3125 12.683594 12.625 C 12.609375 12.359375 12.640625 12.0625 12.425781 11.804688 Z M 12.425781 11.804688 "/>
<path style=" stroke:none;fill-rule:nonzero;fill:rgb(99.607843%,70.980392%,30.196078%);fill-opacity:1;" d="M 12.148438 3.65625 C 12.242188 4.914062 11.058594 6.003906 9.925781 5.960938 C 8.5625 5.910156 7.679688 4.992188 7.683594 3.503906 C 7.683594 2.347656 8.710938 1.464844 10.0625 1.464844 C 11.214844 1.464844 12.148438 2.445312 12.148438 3.65625 Z M 12.148438 3.65625 "/>
</g>
</svg>
