<?xml version="1.0" encoding="UTF-8"?>
<svg xmlns="http://www.w3.org/2000/svg" xmlns:xlink="http://www.w3.org/1999/xlink" width="20pt" height="27pt" viewBox="0 0 20 27" version="1.1">
<g id="surface1">
<path style=" stroke:none;fill-rule:nonzero;fill:rgb(99.607843%,99.607843%,99.607843%);fill-opacity:1;" d="M 0.0195312 13.515625 C 0.0195312 9.050781 0.0234375 4.582031 0.0195312 0.117188 C 0.0195312 0.0351562 0.0390625 0.0195312 0.117188 0.0195312 C 6.71875 0.0195312 13.316406 0.0195312 19.917969 0.0195312 C 20 0.0195312 20.015625 0.0351562 20.015625 0.117188 C 20.015625 9.050781 20.015625 17.984375 20.015625 26.917969 C 20.015625 27 20 27.015625 19.917969 27.015625 C 13.316406 27.015625 6.71875 27.015625 0.117188 27.015625 C 0.0390625 27.015625 0.0195312 27 0.0195312 26.917969 C 0.0234375 22.453125 0.0195312 17.984375 0.0195312 13.515625 Z M 9.039062 24.679688 C 9.476562 24.679688 9.910156 24.679688 10.347656 24.679688 C 10.378906 24.679688 10.414062 24.683594 10.441406 24.671875 C 10.773438 24.582031 11.101562 24.484375 11.417969 24.34375 C 11.96875 24.101562 12.46875 23.78125 12.917969 23.386719 C 13.269531 23.074219 13.585938 22.726562 13.847656 22.332031 C 14.183594 21.828125 14.445312 21.292969 14.609375 20.710938 C 14.738281 20.242188 14.816406 19.765625 14.808594 19.277344 C 14.804688 18.976562 14.808594 18.675781 14.761719 18.378906 C 14.695312 17.945312 14.582031 17.523438 14.414062 17.113281 C 14.28125 16.785156 14.136719 16.457031 13.933594 16.164062 C 13.726562 15.867188 13.5 15.582031 13.242188 15.328125 C 13.195312 15.285156 13.175781 15.242188 13.175781 15.179688 C 13.179688 14.113281 13.183594 13.050781 13.175781 11.984375 C 13.167969 10.152344 13.207031 8.316406 13.15625 6.484375 C 13.144531 6.050781 13.125 5.617188 13.046875 5.1875 C 12.957031 4.710938 12.773438 4.269531 12.511719 3.855469 C 12.402344 3.683594 12.257812 3.53125 12.144531 3.363281 C 11.996094 3.136719 11.796875 2.964844 11.589844 2.796875 C 11.304688 2.574219 10.988281 2.40625 10.652344 2.269531 C 10.265625 2.109375 9.863281 2.011719 9.449219 1.984375 C 9.105469 1.960938 8.761719 1.957031 8.417969 2.015625 C 8.050781 2.078125 7.699219 2.171875 7.359375 2.320312 C 6.902344 2.519531 6.511719 2.804688 6.160156 3.152344 C 5.863281 3.449219 5.589844 3.757812 5.386719 4.125 C 5.105469 4.625 4.90625 5.144531 4.90625 5.730469 C 4.910156 8.878906 4.90625 12.03125 4.90625 15.183594 C 4.90625 15.238281 4.910156 15.289062 4.863281 15.328125 C 4.738281 15.425781 4.636719 15.546875 4.539062 15.667969 C 4.398438 15.847656 4.238281 16.015625 4.109375 16.207031 C 3.996094 16.382812 3.917969 16.574219 3.832031 16.761719 C 3.722656 16.992188 3.628906 17.230469 3.523438 17.464844 C 3.46875 17.582031 3.464844 17.707031 3.433594 17.828125 C 3.359375 18.144531 3.292969 18.464844 3.285156 18.789062 C 3.273438 19.109375 3.261719 19.429688 3.296875 19.753906 C 3.324219 20.003906 3.363281 20.253906 3.421875 20.496094 C 3.542969 21.007812 3.742188 21.488281 4 21.949219 C 4.207031 22.316406 4.453125 22.65625 4.742188 22.964844 C 4.941406 23.179688 5.15625 23.382812 5.390625 23.570312 C 5.925781 23.992188 6.515625 24.308594 7.164062 24.535156 C 7.476562 24.640625 7.789062 24.695312 8.117188 24.679688 C 8.425781 24.667969 8.734375 24.679688 9.039062 24.679688 Z M 15.371094 5.15625 C 15.003906 5.15625 14.636719 5.15625 14.269531 5.152344 C 14.210938 5.152344 14.164062 5.15625 14.164062 5.234375 C 14.164062 5.703125 14.164062 6.175781 14.164062 6.644531 C 14.164062 6.75 14.238281 6.8125 14.347656 6.8125 C 14.394531 6.8125 14.441406 6.816406 14.488281 6.816406 C 15.128906 6.816406 15.773438 6.816406 16.414062 6.8125 C 16.542969 6.8125 16.582031 6.769531 16.582031 6.648438 C 16.582031 6.191406 16.582031 5.738281 16.585938 5.28125 C 16.589844 5.183594 16.546875 5.152344 16.453125 5.152344 C 16.09375 5.15625 15.730469 5.15625 15.371094 5.15625 Z M 15.332031 11.804688 C 14.980469 11.804688 14.625 11.804688 14.273438 11.804688 C 14.132812 11.804688 14.101562 11.832031 14.101562 11.96875 C 14.097656 12.351562 14.097656 12.730469 14.101562 13.113281 C 14.101562 13.242188 14.21875 13.359375 14.347656 13.359375 C 15.027344 13.359375 15.703125 13.359375 16.382812 13.359375 C 16.507812 13.359375 16.585938 13.285156 16.585938 13.160156 C 16.585938 12.761719 16.582031 12.359375 16.578125 11.960938 C 16.578125 11.855469 16.519531 11.804688 16.414062 11.804688 C 16.054688 11.800781 15.695312 11.804688 15.332031 11.804688 Z M 15.359375 10.058594 C 15.730469 10.058594 16.097656 10.054688 16.464844 10.058594 C 16.554688 10.058594 16.609375 10.035156 16.609375 9.925781 C 16.605469 9.546875 16.609375 9.167969 16.605469 8.792969 C 16.605469 8.671875 16.496094 8.5625 16.371094 8.5625 C 15.65625 8.5625 14.945312 8.5625 14.230469 8.5625 C 14.121094 8.5625 14.058594 8.621094 14.058594 8.730469 C 14.054688 9.101562 14.054688 9.472656 14.058594 9.84375 C 14.058594 9.964844 14.15625 10.054688 14.28125 10.054688 C 14.640625 10.058594 15 10.058594 15.359375 10.058594 Z M 15.359375 10.058594 "/>
<path style=" stroke:none;fill-rule:nonzero;fill:rgb(96.862745%,33.333333%,58.039216%);fill-opacity:1;" d="M 9.039062 24.679688 C 8.734375 24.679688 8.425781 24.667969 8.117188 24.679688 C 7.789062 24.695312 7.476562 24.640625 7.164062 24.535156 C 6.515625 24.308594 5.925781 23.992188 5.390625 23.570312 C 5.15625 23.382812 4.941406 23.179688 4.742188 22.964844 C 4.453125 22.65625 4.207031 22.316406 4 21.949219 C 3.742188 21.488281 3.542969 21.007812 3.421875 20.496094 C 3.363281 20.253906 3.324219 20.003906 3.296875 19.753906 C 3.261719 19.429688 3.273438 19.109375 3.285156 18.789062 C 3.292969 18.464844 3.359375 18.144531 3.433594 17.828125 C 3.464844 17.707031 3.46875 17.582031 3.523438 17.464844 C 3.628906 17.230469 3.722656 16.992188 3.832031 16.761719 C 3.917969 16.574219 3.996094 16.382812 4.109375 16.207031 C 4.238281 16.015625 4.398438 15.847656 4.539062 15.667969 C 4.636719 15.546875 4.738281 15.425781 4.863281 15.328125 C 4.910156 15.289062 4.90625 15.238281 4.90625 15.183594 C 4.90625 12.03125 4.910156 8.878906 4.90625 5.730469 C 4.90625 5.144531 5.105469 4.625 5.386719 4.125 C 5.589844 3.757812 5.863281 3.449219 6.160156 3.152344 C 6.511719 2.804688 6.902344 2.519531 7.359375 2.320312 C 7.699219 2.171875 8.050781 2.078125 8.417969 2.015625 C 8.761719 1.957031 9.105469 1.960938 9.449219 1.984375 C 9.863281 2.011719 10.265625 2.109375 10.652344 2.269531 C 10.988281 2.40625 11.304688 2.574219 11.589844 2.796875 C 11.796875 2.964844 11.996094 3.136719 12.144531 3.363281 C 12.257812 3.53125 12.402344 3.683594 12.511719 3.855469 C 12.773438 4.269531 12.957031 4.710938 13.046875 5.1875 C 13.125 5.617188 13.144531 6.050781 13.15625 6.484375 C 13.207031 8.316406 13.167969 10.152344 13.175781 11.984375 C 13.183594 13.050781 13.179688 14.113281 13.175781 15.179688 C 13.175781 15.242188 13.195312 15.285156 13.242188 15.328125 C 13.5 15.582031 13.726562 15.867188 13.933594 16.164062 C 14.136719 16.457031 14.28125 16.785156 14.414062 17.113281 C 14.582031 17.523438 14.695312 17.945312 14.761719 18.378906 C 14.808594 18.675781 14.804688 18.976562 14.808594 19.277344 C 14.816406 19.765625 14.738281 20.242188 14.609375 20.710938 C 14.445312 21.292969 14.183594 21.828125 13.847656 22.332031 C 13.585938 22.726562 13.269531 23.074219 12.917969 23.386719 C 12.46875 23.78125 11.96875 24.101562 11.417969 24.34375 C 11.101562 24.484375 10.773438 24.582031 10.441406 24.671875 C 10.414062 24.683594 10.378906 24.679688 10.347656 24.679688 C 9.910156 24.679688 9.476562 24.679688 9.039062 24.679688 Z M 11.65625 10.597656 C 11.636719 9.234375 11.6875 7.539062 11.636719 5.84375 C 11.632812 5.707031 11.617188 5.574219 11.59375 5.441406 C 11.5 4.820312 11.191406 4.3125 10.691406 3.929688 C 10.109375 3.480469 9.441406 3.300781 8.703125 3.40625 C 8.050781 3.5 7.511719 3.792969 7.085938 4.285156 C 6.691406 4.746094 6.507812 5.289062 6.5 5.875 C 6.480469 7.292969 6.492188 8.714844 6.492188 10.132812 C 6.492188 12.007812 6.492188 13.878906 6.492188 15.75 C 6.492188 15.792969 6.507812 15.839844 6.46875 15.878906 C 6.359375 15.988281 6.265625 16.113281 6.148438 16.207031 C 5.867188 16.4375 5.652344 16.722656 5.421875 16.992188 C 5.339844 17.085938 5.265625 17.183594 5.203125 17.289062 C 4.980469 17.671875 4.851562 18.09375 4.761719 18.523438 C 4.726562 18.710938 4.714844 18.90625 4.722656 19.097656 C 4.730469 19.300781 4.773438 19.503906 4.800781 19.710938 C 4.855469 20.183594 5.023438 20.621094 5.230469 21.046875 C 5.367188 21.339844 5.59375 21.570312 5.792969 21.816406 C 5.960938 22.023438 6.117188 22.238281 6.347656 22.394531 C 6.640625 22.585938 6.933594 22.773438 7.25 22.921875 C 7.394531 22.992188 7.542969 23.058594 7.699219 23.105469 C 7.960938 23.183594 8.222656 23.242188 8.496094 23.242188 C 8.6875 23.246094 8.878906 23.277344 9.070312 23.265625 C 9.230469 23.25 9.394531 23.234375 9.558594 23.234375 C 9.871094 23.226562 10.175781 23.1875 10.476562 23.085938 C 10.960938 22.925781 11.371094 22.660156 11.742188 22.328125 C 11.914062 22.175781 12.066406 22 12.226562 21.835938 C 12.296875 21.765625 12.375 21.710938 12.429688 21.636719 C 12.546875 21.476562 12.683594 21.332031 12.757812 21.148438 C 12.800781 21.039062 12.867188 20.941406 12.910156 20.832031 C 12.960938 20.691406 12.96875 20.542969 13.027344 20.40625 C 13.085938 20.257812 13.113281 20.09375 13.171875 19.945312 C 13.253906 19.726562 13.277344 19.5 13.304688 19.277344 C 13.339844 19.011719 13.273438 18.753906 13.222656 18.5 C 13.15625 18.164062 13.050781 17.832031 12.921875 17.507812 C 12.890625 17.4375 12.871094 17.367188 12.832031 17.296875 C 12.742188 17.140625 12.632812 17 12.527344 16.855469 C 12.40625 16.683594 12.269531 16.519531 12.152344 16.339844 C 12.082031 16.234375 11.957031 16.144531 11.859375 16.046875 C 11.738281 15.925781 11.652344 15.804688 11.652344 15.609375 C 11.660156 14.050781 11.65625 12.488281 11.65625 10.597656 Z M 11.65625 10.597656 "/>
<path style=" stroke:none;fill-rule:nonzero;fill:rgb(96.862745%,33.333333%,58.039216%);fill-opacity:1;" d="M 15.371094 5.15625 C 15.730469 5.15625 16.09375 5.15625 16.453125 5.152344 C 16.546875 5.152344 16.589844 5.183594 16.585938 5.28125 C 16.582031 5.738281 16.582031 6.191406 16.582031 6.648438 C 16.582031 6.769531 16.542969 6.8125 16.414062 6.8125 C 15.773438 6.816406 15.128906 6.816406 14.488281 6.816406 C 14.441406 6.816406 14.394531 6.8125 14.347656 6.8125 C 14.238281 6.8125 14.164062 6.75 14.164062 6.644531 C 14.164062 6.175781 14.164062 5.703125 14.164062 5.234375 C 14.164062 5.15625 14.210938 5.152344 14.269531 5.152344 C 14.636719 5.15625 15.003906 5.15625 15.371094 5.15625 Z M 15.371094 5.15625 "/>
<path style=" stroke:none;fill-rule:nonzero;fill:rgb(96.862745%,33.333333%,58.039216%);fill-opacity:1;" d="M 15.332031 11.804688 C 15.695312 11.804688 16.054688 11.800781 16.414062 11.804688 C 16.519531 11.804688 16.578125 11.855469 16.578125 11.960938 C 16.582031 12.359375 16.585938 12.761719 16.585938 13.160156 C 16.585938 13.285156 16.507812 13.359375 16.382812 13.359375 C 15.703125 13.359375 15.027344 13.359375 14.347656 13.359375 C 14.21875 13.359375 14.101562 13.242188 14.101562 13.113281 C 14.097656 12.730469 14.097656 12.351562 14.101562 11.96875 C 14.101562 11.832031 14.132812 11.804688 14.273438 11.804688 C 14.625 11.804688 14.980469 11.804688 15.332031 11.804688 Z M 15.332031 11.804688 "/>
<path style=" stroke:none;fill-rule:nonzero;fill:rgb(96.862745%,33.333333%,58.039216%);fill-opacity:1;" d="M 15.359375 10.058594 C 15 10.058594 14.640625 10.058594 14.28125 10.054688 C 14.15625 10.054688 14.058594 9.964844 14.058594 9.84375 C 14.054688 9.472656 14.054688 9.101562 14.058594 8.730469 C 14.058594 8.621094 14.121094 8.5625 14.230469 8.5625 C 14.945312 8.5625 15.65625 8.5625 16.371094 8.5625 C 16.496094 8.5625 16.605469 8.671875 16.605469 8.792969 C 16.609375 9.167969 16.605469 9.546875 16.609375 9.925781 C 16.609375 10.035156 16.554688 10.058594 16.464844 10.058594 C 16.097656 10.054688 15.730469 10.058594 15.359375 10.058594 Z M 15.359375 10.058594 "/>
<path style=" stroke:none;fill-rule:nonzero;fill:rgb(99.607843%,99.607843%,99.607843%);fill-opacity:1;" d="M 11.65625 10.597656 C 11.65625 12.488281 11.660156 14.050781 11.652344 15.609375 C 11.652344 15.804688 11.738281 15.925781 11.859375 16.046875 C 11.957031 16.144531 12.082031 16.234375 12.152344 16.339844 C 12.269531 16.519531 12.40625 16.683594 12.527344 16.855469 C 12.632812 17 12.742188 17.140625 12.832031 17.296875 C 12.871094 17.367188 12.890625 17.4375 12.921875 17.507812 C 13.050781 17.832031 13.15625 18.164062 13.222656 18.5 C 13.273438 18.753906 13.339844 19.011719 13.304688 19.277344 C 13.277344 19.5 13.253906 19.726562 13.171875 19.945312 C 13.113281 20.09375 13.085938 20.257812 13.027344 20.40625 C 12.96875 20.542969 12.960938 20.691406 12.910156 20.832031 C 12.867188 20.941406 12.800781 21.039062 12.757812 21.148438 C 12.683594 21.332031 12.546875 21.476562 12.429688 21.636719 C 12.375 21.710938 12.296875 21.765625 12.226562 21.835938 C 12.066406 22 11.914062 22.175781 11.742188 22.328125 C 11.371094 22.660156 10.960938 22.925781 10.476562 23.085938 C 10.175781 23.1875 9.871094 23.226562 9.558594 23.234375 C 9.394531 23.234375 9.230469 23.25 9.070312 23.265625 C 8.878906 23.277344 8.6875 23.246094 8.496094 23.242188 C 8.222656 23.242188 7.960938 23.183594 7.699219 23.105469 C 7.542969 23.058594 7.394531 22.992188 7.25 22.921875 C 6.933594 22.773438 6.640625 22.585938 6.347656 22.394531 C 6.117188 22.238281 5.960938 22.023438 5.792969 21.816406 C 5.59375 21.570312 5.367188 21.339844 5.230469 21.046875 C 5.023438 20.621094 4.855469 20.183594 4.800781 19.710938 C 4.773438 19.503906 4.730469 19.300781 4.722656 19.097656 C 4.714844 18.90625 4.726562 18.710938 4.761719 18.523438 C 4.851562 18.09375 4.980469 17.671875 5.203125 17.289062 C 5.265625 17.183594 5.339844 17.085938 5.421875 16.992188 C 5.652344 16.722656 5.867188 16.4375 6.148438 16.207031 C 6.265625 16.113281 6.359375 15.988281 6.46875 15.878906 C 6.507812 15.839844 6.492188 15.792969 6.492188 15.75 C 6.492188 13.878906 6.492188 12.007812 6.492188 10.132812 C 6.492188 8.714844 6.480469 7.292969 6.5 5.875 C 6.507812 5.289062 6.691406 4.746094 7.085938 4.285156 C 7.511719 3.792969 8.050781 3.5 8.703125 3.40625 C 9.441406 3.300781 10.109375 3.480469 10.691406 3.929688 C 11.191406 4.3125 11.5 4.820312 11.59375 5.441406 C 11.617188 5.574219 11.632812 5.707031 11.636719 5.84375 C 11.6875 7.539062 11.636719 9.234375 11.65625 10.597656 Z M 9.769531 12.726562 C 9.769531 11.386719 9.773438 10.046875 9.769531 8.707031 C 9.769531 8.574219 9.761719 8.5625 9.625 8.5625 C 9.222656 8.5625 8.820312 8.566406 8.414062 8.558594 C 8.257812 8.558594 8.183594 8.621094 8.183594 8.789062 C 8.1875 11.433594 8.183594 14.078125 8.1875 16.722656 C 8.1875 16.820312 8.148438 16.871094 8.0625 16.917969 C 7.761719 17.074219 7.460938 17.234375 7.222656 17.488281 C 7.152344 17.558594 7.101562 17.648438 7.035156 17.71875 C 6.792969 17.976562 6.714844 18.308594 6.644531 18.632812 C 6.59375 18.886719 6.632812 19.148438 6.617188 19.40625 C 6.605469 19.664062 6.679688 19.894531 6.785156 20.128906 C 7.023438 20.640625 7.40625 21.003906 7.90625 21.257812 C 8.40625 21.511719 8.945312 21.5625 9.488281 21.472656 C 10.113281 21.371094 10.625 21.058594 11.015625 20.5625 C 11.453125 20.003906 11.578125 19.371094 11.4375 18.6875 C 11.351562 18.265625 11.148438 17.886719 10.851562 17.566406 C 10.585938 17.28125 10.269531 17.066406 9.898438 16.925781 C 9.804688 16.890625 9.769531 16.835938 9.769531 16.734375 C 9.773438 15.398438 9.769531 14.0625 9.769531 12.726562 Z M 9.769531 12.726562 "/>
<path style=" stroke:none;fill-rule:nonzero;fill:rgb(96.862745%,33.333333%,58.039216%);fill-opacity:1;" d="M 9.769531 12.726562 C 9.769531 14.0625 9.773438 15.398438 9.769531 16.734375 C 9.769531 16.835938 9.804688 16.890625 9.898438 16.925781 C 10.269531 17.066406 10.585938 17.28125 10.851562 17.566406 C 11.148438 17.886719 11.351562 18.265625 11.4375 18.6875 C 11.578125 19.371094 11.453125 20.003906 11.015625 20.5625 C 10.625 21.058594 10.113281 21.371094 9.488281 21.472656 C 8.945312 21.5625 8.40625 21.511719 7.90625 21.257812 C 7.40625 21.003906 7.023438 20.640625 6.785156 20.128906 C 6.679688 19.894531 6.605469 19.664062 6.617188 19.40625 C 6.632812 19.148438 6.59375 18.886719 6.644531 18.632812 C 6.714844 18.308594 6.792969 17.976562 7.035156 17.71875 C 7.101562 17.648438 7.152344 17.558594 7.222656 17.488281 C 7.460938 17.234375 7.761719 17.074219 8.0625 16.917969 C 8.148438 16.871094 8.1875 16.820312 8.1875 16.722656 C 8.183594 14.078125 8.1875 11.433594 8.183594 8.789062 C 8.183594 8.621094 8.257812 8.558594 8.414062 8.558594 C 8.820312 8.566406 9.222656 8.5625 9.625 8.5625 C 9.761719 8.5625 9.769531 8.574219 9.769531 8.707031 C 9.773438 10.046875 9.769531 11.386719 9.769531 12.726562 Z M 9.769531 12.726562 "/>
</g>
</svg>
